<?xml version="1.0" encoding="UTF-8" standalone="no"?>
<!DOCTYPE svg PUBLIC "-//W3C//DTD SVG 1.1//EN"
 "http://www.w3.org/Graphics/SVG/1.1/DTD/svg11.dtd">
<!-- Generated by graphviz version 2.28.0 (20110509.1545)
 -->
<!-- Title: models_diagram Pages: 1 -->
<svg width="2235pt" height="692pt"
 viewBox="0.00 0.00 2235.00 692.00" xmlns="http://www.w3.org/2000/svg" xmlns:xlink="http://www.w3.org/1999/xlink">
<g id="graph1" class="graph" transform="scale(1 1) rotate(0) translate(4 688)">
<title>models_diagram</title>
<polygon fill="white" stroke="white" points="-4,5 -4,-688 2232,-688 2232,5 -4,5"/>
<!-- _diagram_info -->
<g id="node1" class="node"><title>_diagram_info</title>
<text text-anchor="start" x="217.312" y="-667" font-family="Times,serif" font-size="13.00">Models diagram</text>
<text text-anchor="start" x="217.312" y="-651.4" font-family="Times,serif" font-size="13.00">Date: May 03 2012 &#45; 00:25</text>
<text text-anchor="start" x="217.312" y="-635.8" font-family="Times,serif" font-size="13.00">Migration version: 20120503010551</text>
<text text-anchor="start" x="217.312" y="-620.2" font-family="Times,serif" font-size="13.00">Generated by RailRoady 1.0.7</text>
<text text-anchor="start" x="217.312" y="-604.6" font-family="Times,serif" font-size="13.00">http://railroady.prestonlee.com</text>
</g>
<!-- Account -->
<g id="node2" class="node"><title>Account</title>
<ellipse fill="none" stroke="black" cx="478" cy="-641" rx="43.1305" ry="18"/>
<text text-anchor="middle" x="478" y="-635.4" font-family="Times,serif" font-size="14.00">Account</text>
</g>
<!-- Activity -->
<g id="node3" class="node"><title>Activity</title>
<ellipse fill="none" stroke="black" cx="42" cy="-182" rx="42.5278" ry="18"/>
<text text-anchor="middle" x="42" y="-176.4" font-family="Times,serif" font-size="14.00">Activity</text>
</g>
<!-- Rol -->
<g id="node35" class="node"><title>Rol</title>
<ellipse fill="none" stroke="black" cx="81" cy="-92" rx="27" ry="18"/>
<text text-anchor="middle" x="81" y="-86.4" font-family="Times,serif" font-size="14.00">Rol</text>
</g>
<!-- Activity&#45;&gt;Rol -->
<g id="edge2" class="edge"><title>Activity&#45;&gt;Rol</title>
<path fill="none" stroke="#574031" d="M53.7347,-154.522C58.7361,-143.236 64.552,-130.113 69.5246,-118.893"/>
<polygon fill="#574031" stroke="#574031" points="53.5714,-154.89 45.4055,-162.209 51.5455,-159.462 49.5196,-164.033 49.5196,-164.033 49.5196,-164.033 51.5455,-159.462 53.6337,-165.856 53.5714,-154.89 53.5714,-154.89"/>
<polygon fill="#574031" stroke="#574031" points="69.584,-118.759 77.7498,-111.44 71.6099,-114.188 73.6358,-109.617 73.6358,-109.617 73.6358,-109.617 71.6099,-114.188 69.5217,-107.793 69.584,-118.759 69.584,-118.759"/>
</g>
<!-- Address -->
<g id="node4" class="node"><title>Address</title>
<ellipse fill="none" stroke="black" cx="866" cy="-92" rx="42.5278" ry="18"/>
<text text-anchor="middle" x="866" y="-86.4" font-family="Times,serif" font-size="14.00">Address</text>
</g>
<!-- ApplicationUser -->
<g id="node5" class="node"><title>ApplicationUser</title>
<ellipse fill="none" stroke="black" cx="243" cy="-272" rx="74.2954" ry="18"/>
<text text-anchor="middle" x="243" y="-266.4" font-family="Times,serif" font-size="14.00">ApplicationUser</text>
</g>
<!-- ApplicationUser&#45;&gt;Activity -->
<g id="edge8" class="edge"><title>ApplicationUser&#45;&gt;Activity</title>
<path fill="none" stroke="#81303d" d="M169.265,-260.617C145.868,-255.379 120.508,-247.576 99,-236 85.3461,-228.651 72.4802,-217.242 62.4392,-206.889"/>
<polygon fill="#81303d" stroke="#81303d" points="169.371,-260.639 178.224,-267.11 174.263,-261.673 179.155,-262.707 179.155,-262.707 179.155,-262.707 174.263,-261.673 180.086,-258.305 169.371,-260.639 169.371,-260.639"/>
<polygon fill="#81303d" stroke="#81303d" points="62.156,-206.584 58.6402,-196.197 58.7506,-202.923 55.3452,-199.262 55.3452,-199.262 55.3452,-199.262 58.7506,-202.923 52.0503,-202.327 62.156,-206.584 62.156,-206.584"/>
</g>
<!-- ApplicationUser&#45;&gt;Rol -->
<g id="edge6" class="edge"><title>ApplicationUser&#45;&gt;Rol</title>
<path fill="none" stroke="#34bab3" d="M200.31,-251.034C177.749,-238.812 150.895,-221.403 132,-200 111.119,-176.349 96.9574,-142.65 88.9555,-119.421"/>
<polygon fill="#34bab3" stroke="#34bab3" points="200.506,-251.137 207.266,-259.772 204.933,-253.463 209.359,-255.788 209.359,-255.788 209.359,-255.788 204.933,-253.463 211.452,-251.804 200.506,-251.137 200.506,-251.137"/>
<polygon fill="#34bab3" stroke="#34bab3" points="88.9356,-119.36 90.08,-108.454 87.3708,-114.611 85.806,-109.862 85.806,-109.862 85.806,-109.862 87.3708,-114.611 81.5321,-111.271 88.9356,-119.36 88.9356,-119.36"/>
</g>
<!-- UserGroup -->
<g id="node42" class="node"><title>UserGroup</title>
<ellipse fill="none" stroke="black" cx="331" cy="-182" rx="53.4192" ry="18"/>
<text text-anchor="middle" x="331" y="-176.4" font-family="Times,serif" font-size="14.00">UserGroup</text>
</g>
<!-- ApplicationUser&#45;&gt;UserGroup -->
<g id="edge4" class="edge"><title>ApplicationUser&#45;&gt;UserGroup</title>
<path fill="none" stroke="#1d98a1" d="M266.656,-247.344C279.398,-234.602 295.061,-218.939 307.742,-206.258"/>
<polygon fill="#1d98a1" stroke="#1d98a1" points="266.623,-247.377 256.37,-251.266 263.088,-250.912 259.552,-254.448 259.552,-254.448 259.552,-254.448 263.088,-250.912 262.734,-257.63 266.623,-247.377 266.623,-247.377"/>
<polygon fill="#1d98a1" stroke="#1d98a1" points="307.748,-206.252 318.001,-202.363 311.284,-202.716 314.819,-199.181 314.819,-199.181 314.819,-199.181 311.284,-202.716 311.637,-195.999 307.748,-206.252 307.748,-206.252"/>
</g>
<!-- BusinessProcess -->
<g id="node6" class="node"><title>BusinessProcess</title>
<ellipse fill="none" stroke="black" cx="1744" cy="-641" rx="74.3235" ry="18"/>
<text text-anchor="middle" x="1744" y="-635.4" font-family="Times,serif" font-size="14.00">BusinessProcess</text>
</g>
<!-- Process -->
<g id="node53" class="node"><title>Process</title>
<ellipse fill="none" stroke="black" cx="1744" cy="-526" rx="40.31" ry="18"/>
<text text-anchor="middle" x="1744" y="-520.4" font-family="Times,serif" font-size="14.00">Process</text>
</g>
<!-- BusinessProcess&#45;&gt;Process -->
<g id="edge12" class="edge"><title>BusinessProcess&#45;&gt;Process</title>
<path fill="none" stroke="#13d730" d="M1744,-614.812C1744,-596.889 1744,-572.823 1744,-554.417"/>
<ellipse fill="none" stroke="#13d730" cx="1744" cy="-618.838" rx="4" ry="4"/>
<polygon fill="#13d730" stroke="#13d730" points="1744,-554.324 1748.5,-544.324 1744,-549.324 1744,-544.324 1744,-544.324 1744,-544.324 1744,-549.324 1739.5,-544.324 1744,-554.324 1744,-554.324"/>
<text text-anchor="middle" x="1784.82" y="-565.4" font-family="Times,serif" font-size="14.00">childprocesses</text>
</g>
<!-- Carrier -->
<g id="node7" class="node"><title>Carrier</title>
<ellipse fill="none" stroke="black" cx="903" cy="-272" rx="38.0718" ry="18"/>
<text text-anchor="middle" x="903" y="-266.4" font-family="Times,serif" font-size="14.00">Carrier</text>
</g>
<!-- Company -->
<g id="node8" class="node"><title>Company</title>
<ellipse fill="none" stroke="black" cx="588" cy="-641" rx="48.3834" ry="18"/>
<text text-anchor="middle" x="588" y="-635.4" font-family="Times,serif" font-size="14.00">Company</text>
</g>
<!-- Company&#45;&gt;Address -->
<g id="edge14" class="edge"><title>Company&#45;&gt;Address</title>
<path fill="none" stroke="#d37b65" d="M561.24,-619.739C551.55,-612.641 540.426,-604.758 530,-598 477.034,-563.666 407,-590.121 407,-527 407,-527 407,-527 407,-271 407,-190.545 442.9,-156.864 518,-128 570.71,-107.742 730.521,-98.4452 813.985,-94.8757"/>
<ellipse fill="none" stroke="#d37b65" cx="564.474" cy="-622.129" rx="4.00002" ry="4.00002"/>
<polygon fill="#d37b65" stroke="#d37b65" points="814.025,-94.8741 824.204,-98.9547 819.021,-94.6664 824.017,-94.4586 824.017,-94.4586 824.017,-94.4586 819.021,-94.6664 823.83,-89.9625 814.025,-94.8741 814.025,-94.8741"/>
</g>
<!-- Inventory -->
<g id="node18" class="node"><title>Inventory</title>
<ellipse fill="none" stroke="black" cx="923" cy="-526" rx="48.3693" ry="18"/>
<text text-anchor="middle" x="923" y="-520.4" font-family="Times,serif" font-size="14.00">Inventory</text>
</g>
<!-- Company&#45;&gt;Inventory -->
<g id="edge16" class="edge"><title>Company&#45;&gt;Inventory</title>
<path fill="none" stroke="#4c548c" d="M630.436,-625.686C694.098,-604.212 813.752,-563.851 878.564,-541.989"/>
<ellipse fill="none" stroke="#4c548c" cx="626.379" cy="-627.054" rx="4.00001" ry="4.00001"/>
<polygon fill="#4c548c" stroke="#4c548c" points="878.622,-541.969 889.535,-543.037 883.359,-540.371 888.097,-538.773 888.097,-538.773 888.097,-538.773 883.359,-540.371 886.659,-534.509 878.622,-541.969 878.622,-541.969"/>
</g>
<!-- ConsignmentOrder -->
<g id="node9" class="node"><title>ConsignmentOrder</title>
<ellipse fill="none" stroke="black" cx="1578" cy="-452" rx="85.0931" ry="18"/>
<text text-anchor="middle" x="1578" y="-446.4" font-family="Times,serif" font-size="14.00">ConsignmentOrder</text>
</g>
<!-- Customer -->
<g id="node10" class="node"><title>Customer</title>
<ellipse fill="none" stroke="black" cx="825" cy="-362" rx="48.3834" ry="18"/>
<text text-anchor="middle" x="825" y="-356.4" font-family="Times,serif" font-size="14.00">Customer</text>
</g>
<!-- Customer&#45;&gt;Address -->
<g id="edge20" class="edge"><title>Customer&#45;&gt;Address</title>
<path fill="none" stroke="#0c4303" d="M814.683,-336.406C800.235,-298.171 778.163,-222.764 801,-164 808.559,-144.548 824.21,-127.18 838.26,-114.49"/>
<ellipse fill="none" stroke="#0c4303" cx="816.181" cy="-340.253" rx="4.00001" ry="4.00001"/>
<polygon fill="#0c4303" stroke="#0c4303" points="838.274,-114.478 848.782,-111.342 842.056,-111.208 845.839,-107.938 845.839,-107.938 845.839,-107.938 842.056,-111.208 842.896,-104.534 838.274,-114.478 838.274,-114.478"/>
</g>
<!-- Customer&#45;&gt;Carrier -->
<g id="edge22" class="edge"><title>Customer&#45;&gt;Carrier</title>
<path fill="none" stroke="#ccec03" d="M820.375,-335.896C819.939,-326.46 821.143,-316.073 826.489,-308 834.445,-295.987 847.629,-288.035 860.831,-282.798"/>
<ellipse fill="none" stroke="#ccec03" cx="820.747" cy="-339.879" rx="4" ry="4"/>
<ellipse fill="#ccec03" stroke="#ccec03" cx="864.803" cy="-281.371" rx="4.00001" ry="4.00001"/>
<text text-anchor="middle" x="866.255" y="-311.4" font-family="Times,serif" font-size="14.00">defaultCarrier</text>
</g>
<!-- Document -->
<g id="node11" class="node"><title>Document</title>
<ellipse fill="none" stroke="black" cx="1634" cy="-526" rx="50.8959" ry="18"/>
<text text-anchor="middle" x="1634" y="-520.4" font-family="Times,serif" font-size="14.00">Document</text>
</g>
<!-- Document&#45;&gt;ConsignmentOrder -->
<g id="edge18" class="edge"><title>Document&#45;&gt;ConsignmentOrder</title>
<path fill="none" stroke="black" d="M1621.01,-508.301C1612.09,-496.835 1600.29,-481.661 1591.31,-470.109"/>
</g>
<!-- DocumentedMaterial -->
<g id="node12" class="node"><title>DocumentedMaterial</title>
<ellipse fill="none" stroke="black" cx="1696" cy="-182" rx="93.1313" ry="18"/>
<text text-anchor="middle" x="1696" y="-176.4" font-family="Times,serif" font-size="14.00">DocumentedMaterial</text>
</g>
<!-- Document&#45;&gt;DocumentedMaterial -->
<g id="edge30" class="edge"><title>Document&#45;&gt;DocumentedMaterial</title>
<path fill="none" stroke="#9e43e8" d="M1678.6,-510.226C1703.27,-498.943 1729,-480.569 1729,-453 1729,-453 1729,-453 1729,-271 1729,-249.313 1720.1,-226.424 1711.55,-209.427"/>
<ellipse fill="none" stroke="#9e43e8" cx="1674.67" cy="-511.918" rx="4.00002" ry="4.00002"/>
<polygon fill="#9e43e8" stroke="#9e43e8" points="1711.32,-208.985 1710.6,-198.042 1708.97,-204.569 1706.62,-200.154 1706.62,-200.154 1706.62,-200.154 1708.97,-204.569 1702.65,-202.266 1711.32,-208.985 1711.32,-208.985"/>
</g>
<!-- DocumentedProduct -->
<g id="node13" class="node"><title>DocumentedProduct</title>
<ellipse fill="none" stroke="black" cx="2022" cy="-92" rx="90.1283" ry="18"/>
<text text-anchor="middle" x="2022" y="-86.4" font-family="Times,serif" font-size="14.00">DocumentedProduct</text>
</g>
<!-- Document&#45;&gt;DocumentedProduct -->
<g id="edge28" class="edge"><title>Document&#45;&gt;DocumentedProduct</title>
<path fill="none" stroke="#3ac40d" d="M1678.57,-511.262C1683.74,-510.001 1688.96,-508.872 1694,-508 1769.42,-494.96 2034,-529.538 2034,-453 2034,-453 2034,-453 2034,-181 2034,-160.442 2030.75,-137.428 2027.63,-120.093"/>
<ellipse fill="none" stroke="#3ac40d" cx="1674.4" cy="-512.337" rx="4.00001" ry="4.00001"/>
<polygon fill="#3ac40d" stroke="#3ac40d" points="2027.59,-119.93 2030.15,-109.267 2026.66,-115.018 2025.73,-110.105 2025.73,-110.105 2025.73,-110.105 2026.66,-115.018 2021.31,-110.944 2027.59,-119.93 2027.59,-119.93"/>
</g>
<!-- ManufactureOrder -->
<g id="node22" class="node"><title>ManufactureOrder</title>
<ellipse fill="none" stroke="black" cx="2145" cy="-452" rx="82.3332" ry="18"/>
<text text-anchor="middle" x="2145" y="-446.4" font-family="Times,serif" font-size="14.00">ManufactureOrder</text>
</g>
<!-- Document&#45;&gt;ManufactureOrder -->
<g id="edge60" class="edge"><title>Document&#45;&gt;ManufactureOrder</title>
<path fill="none" stroke="black" d="M1670.51,-513.244C1678.2,-511.168 1686.31,-509.268 1694,-508 1849.44,-482.365 1893.85,-522.471 2048,-490 2069.87,-485.393 2093.31,-476.569 2111.67,-468.693"/>
</g>
<!-- Material -->
<g id="node23" class="node"><title>Material</title>
<ellipse fill="none" stroke="black" cx="1456" cy="-272" rx="43.6191" ry="18"/>
<text text-anchor="middle" x="1456" y="-266.4" font-family="Times,serif" font-size="14.00">Material</text>
</g>
<!-- Document&#45;&gt;Material -->
<g id="edge24" class="edge"><title>Document&#45;&gt;Material</title>
<path fill="none" stroke="#2c3e0c" d="M1655.26,-500.887C1668.81,-482.46 1682.08,-456.489 1672,-434 1638.41,-359.069 1549.29,-311.189 1496.62,-288.501"/>
<polygon fill="#2c3e0c" stroke="#2c3e0c" points="1655.25,-500.899 1645.55,-506.014 1652.17,-504.841 1649.1,-508.782 1649.1,-508.782 1649.1,-508.782 1652.17,-504.841 1652.65,-511.551 1655.25,-500.899 1655.25,-500.899"/>
<polygon fill="#2c3e0c" stroke="#2c3e0c" points="1496.45,-288.429 1488.97,-280.408 1491.84,-286.493 1487.23,-284.557 1487.23,-284.557 1487.23,-284.557 1491.84,-286.493 1485.48,-288.705 1496.45,-288.429 1496.45,-288.429"/>
</g>
<!-- Package -->
<g id="node25" class="node"><title>Package</title>
<ellipse fill="none" stroke="black" cx="1800" cy="-452" rx="43.3141" ry="18"/>
<text text-anchor="middle" x="1800" y="-446.4" font-family="Times,serif" font-size="14.00">Package</text>
</g>
<!-- Document&#45;&gt;Package -->
<g id="edge32" class="edge"><title>Document&#45;&gt;Package</title>
<path fill="none" stroke="#5e642d" d="M1679.81,-511.614C1704.2,-504.223 1731.5,-495.461 1743,-490 1752.59,-485.446 1762.48,-479.521 1771.28,-473.752"/>
<ellipse fill="none" stroke="#5e642d" cx="1675.84" cy="-512.807" rx="4.00001" ry="4.00001"/>
<polygon fill="#5e642d" stroke="#5e642d" points="1771.37,-473.689 1782.18,-471.82 1775.52,-470.89 1779.66,-468.091 1779.66,-468.091 1779.66,-468.091 1775.52,-470.89 1777.14,-464.363 1771.37,-473.689 1771.37,-473.689"/>
</g>
<!-- PickOrder -->
<g id="node26" class="node"><title>PickOrder</title>
<ellipse fill="none" stroke="black" cx="1912" cy="-452" rx="50.5872" ry="18"/>
<text text-anchor="middle" x="1912" y="-446.4" font-family="Times,serif" font-size="14.00">PickOrder</text>
</g>
<!-- Document&#45;&gt;PickOrder -->
<g id="edge80" class="edge"><title>Document&#45;&gt;PickOrder</title>
<path fill="none" stroke="black" d="M1672.35,-513.888C1679.53,-511.877 1686.98,-509.837 1694,-508 1763.87,-489.708 1782.13,-488.292 1852,-470 1859.12,-468.135 1866.69,-466.062 1873.97,-464.022"/>
</g>
<!-- Product -->
<g id="node29" class="node"><title>Product</title>
<ellipse fill="none" stroke="black" cx="1886" cy="-182" rx="41.1166" ry="18"/>
<text text-anchor="middle" x="1886" y="-176.4" font-family="Times,serif" font-size="14.00">Product</text>
</g>
<!-- Document&#45;&gt;Product -->
<g id="edge26" class="edge"><title>Document&#45;&gt;Product</title>
<path fill="none" stroke="#06c2ac" d="M1681.21,-510.958C1685.52,-509.879 1689.83,-508.873 1694,-508 1759.7,-494.256 1991,-520.122 1991,-453 1991,-453 1991,-453 1991,-271 1991,-235.91 1956.13,-212.038 1926.58,-198.108"/>
<polygon fill="#06c2ac" stroke="#06c2ac" points="1680.92,-511.035 1670.1,-509.223 1676.08,-512.306 1671.25,-513.576 1671.25,-513.576 1671.25,-513.576 1676.08,-512.306 1672.39,-517.928 1680.92,-511.035 1680.92,-511.035"/>
<polygon fill="#06c2ac" stroke="#06c2ac" points="1926.35,-198.008 1919.05,-189.824 1921.79,-195.971 1917.22,-193.933 1917.22,-193.933 1917.22,-193.933 1921.79,-195.971 1915.39,-198.043 1926.35,-198.008 1926.35,-198.008"/>
</g>
<!-- PurchaseOrder -->
<g id="node32" class="node"><title>PurchaseOrder</title>
<ellipse fill="none" stroke="black" cx="1148" cy="-362" rx="68.1259" ry="18"/>
<text text-anchor="middle" x="1148" y="-356.4" font-family="Times,serif" font-size="14.00">PurchaseOrder</text>
</g>
<!-- Document&#45;&gt;PurchaseOrder -->
<g id="edge96" class="edge"><title>Document&#45;&gt;PurchaseOrder</title>
<path fill="none" stroke="black" d="M1583.04,-524.268C1482.76,-521.911 1264.31,-511.965 1204,-470 1173.02,-448.444 1157.92,-404.302 1151.69,-379.992"/>
</g>
<!-- ReceivingOrder -->
<g id="node33" class="node"><title>ReceivingOrder</title>
<ellipse fill="none" stroke="black" cx="1020" cy="-452" rx="72.5616" ry="18"/>
<text text-anchor="middle" x="1020" y="-446.4" font-family="Times,serif" font-size="14.00">ReceivingOrder</text>
</g>
<!-- Document&#45;&gt;ReceivingOrder -->
<g id="edge104" class="edge"><title>Document&#45;&gt;ReceivingOrder</title>
<path fill="none" stroke="black" d="M1583.33,-523.57C1470.67,-520.069 1202.39,-509.868 1114,-490 1092.61,-485.192 1069.7,-476.258 1051.85,-468.374"/>
</g>
<!-- RmaOrder -->
<g id="node34" class="node"><title>RmaOrder</title>
<ellipse fill="none" stroke="black" cx="875" cy="-452" rx="51.1958" ry="18"/>
<text text-anchor="middle" x="875" y="-446.4" font-family="Times,serif" font-size="14.00">RmaOrder</text>
</g>
<!-- Document&#45;&gt;RmaOrder -->
<g id="edge108" class="edge"><title>Document&#45;&gt;RmaOrder</title>
<path fill="none" stroke="black" d="M1583.78,-522.609C1489.45,-517.914 1279.38,-506.49 1103,-490 1029.45,-483.124 1010.51,-484.103 938,-470 929.882,-468.421 921.271,-466.36 913.109,-464.221"/>
</g>
<!-- SalesOrder -->
<g id="node36" class="node"><title>SalesOrder</title>
<ellipse fill="none" stroke="black" cx="713" cy="-452" rx="53.4122" ry="18"/>
<text text-anchor="middle" x="713" y="-446.4" font-family="Times,serif" font-size="14.00">SalesOrder</text>
</g>
<!-- Document&#45;&gt;SalesOrder -->
<g id="edge120" class="edge"><title>Document&#45;&gt;SalesOrder</title>
<path fill="none" stroke="black" d="M1582.96,-523.495C1453.8,-519.272 1103.65,-505.232 814,-470 795.731,-467.778 775.725,-464.574 758.373,-461.545"/>
</g>
<!-- ShippingOrder -->
<g id="node39" class="node"><title>ShippingOrder</title>
<ellipse fill="none" stroke="black" cx="1281" cy="-452" rx="68.1541" ry="18"/>
<text text-anchor="middle" x="1281" y="-446.4" font-family="Times,serif" font-size="14.00">ShippingOrder</text>
</g>
<!-- Document&#45;&gt;ShippingOrder -->
<g id="edge130" class="edge"><title>Document&#45;&gt;ShippingOrder</title>
<path fill="none" stroke="black" d="M1589.97,-516.515C1535.44,-505.943 1439.77,-487.171 1358,-470 1349.43,-468.199 1340.33,-466.236 1331.5,-464.305"/>
</g>
<!-- TransferOrder -->
<g id="node40" class="node"><title>TransferOrder</title>
<ellipse fill="none" stroke="black" cx="996" cy="-362" rx="65.3917" ry="18"/>
<text text-anchor="middle" x="996" y="-356.4" font-family="Times,serif" font-size="14.00">TransferOrder</text>
</g>
<!-- Document&#45;&gt;TransferOrder -->
<g id="edge138" class="edge"><title>Document&#45;&gt;TransferOrder</title>
<path fill="none" stroke="black" d="M1583.28,-523.201C1508.68,-519.933 1365.19,-511.271 1245,-490 1211.03,-483.988 1201.69,-483.624 1170,-470 1139.37,-456.836 1059.89,-405.301 1019.83,-378.851"/>
</g>
<!-- Employee -->
<g id="node14" class="node"><title>Employee</title>
<ellipse fill="none" stroke="black" cx="572" cy="-362" rx="50.2819" ry="18"/>
<text text-anchor="middle" x="572" y="-356.4" font-family="Times,serif" font-size="14.00">Employee</text>
</g>
<!-- Employee&#45;&gt;ApplicationUser -->
<g id="edge34" class="edge"><title>Employee&#45;&gt;ApplicationUser</title>
<path fill="none" stroke="#cd1d21" d="M524.879,-348.396C465.823,-332.6 364.642,-305.536 300.922,-288.493"/>
<ellipse fill="none" stroke="#cd1d21" cx="529.103" cy="-349.526" rx="4.00001" ry="4.00001"/>
<polygon fill="#cd1d21" stroke="#cd1d21" points="300.69,-288.431 292.192,-281.5 295.859,-287.139 291.029,-285.847 291.029,-285.847 291.029,-285.847 295.859,-287.139 289.866,-290.194 300.69,-288.431 300.69,-288.431"/>
</g>
<!-- EmployeeGroup -->
<g id="node15" class="node"><title>EmployeeGroup</title>
<ellipse fill="none" stroke="black" cx="580" cy="-182" rx="74.2954" ry="18"/>
<text text-anchor="middle" x="580" y="-176.4" font-family="Times,serif" font-size="14.00">EmployeeGroup</text>
</g>
<!-- Employee&#45;&gt;EmployeeGroup -->
<g id="edge36" class="edge"><title>Employee&#45;&gt;EmployeeGroup</title>
<path fill="none" stroke="#9649e8" d="M573.222,-333.809C574.731,-300.24 577.281,-243.497 578.786,-210.012"/>
<polygon fill="#9649e8" stroke="#9649e8" points="573.216,-333.943 568.272,-343.731 572.992,-338.938 572.767,-343.933 572.767,-343.933 572.767,-343.933 572.992,-338.938 577.263,-344.135 573.216,-333.943 573.216,-333.943"/>
<polygon fill="#9649e8" stroke="#9649e8" points="578.786,-210.006 583.731,-200.218 579.011,-205.011 579.235,-200.016 579.235,-200.016 579.235,-200.016 579.011,-205.011 574.74,-199.814 578.786,-210.006 578.786,-210.006"/>
</g>
<!-- FieldsGroup -->
<g id="node16" class="node"><title>FieldsGroup</title>
<ellipse fill="none" stroke="black" cx="200" cy="-182" rx="58.9829" ry="18"/>
<text text-anchor="middle" x="200" y="-176.4" font-family="Times,serif" font-size="14.00">FieldsGroup</text>
</g>
<!-- Schema -->
<g id="node37" class="node"><title>Schema</title>
<ellipse fill="none" stroke="black" cx="173" cy="-92" rx="41.4082" ry="18"/>
<text text-anchor="middle" x="173" y="-86.4" font-family="Times,serif" font-size="14.00">Schema</text>
</g>
<!-- FieldsGroup&#45;&gt;Schema -->
<g id="edge42" class="edge"><title>FieldsGroup&#45;&gt;Schema</title>
<path fill="none" stroke="#f14c83" d="M191.767,-154.167C188.417,-143.249 184.555,-130.659 181.207,-119.75"/>
<polygon fill="#f14c83" stroke="#f14c83" points="191.861,-154.473 190.492,-165.353 193.327,-159.253 194.794,-164.033 194.794,-164.033 194.794,-164.033 193.327,-159.253 199.096,-162.713 191.861,-154.473 191.861,-154.473"/>
<polygon fill="#f14c83" stroke="#f14c83" points="181.123,-119.475 182.492,-108.595 179.657,-114.695 178.19,-109.915 178.19,-109.915 178.19,-109.915 179.657,-114.695 173.888,-111.235 181.123,-119.475 181.123,-119.475"/>
</g>
<!-- SchemaField -->
<g id="node38" class="node"><title>SchemaField</title>
<ellipse fill="none" stroke="black" cx="219" cy="-18" rx="61.1861" ry="18"/>
<text text-anchor="middle" x="219" y="-12.4" font-family="Times,serif" font-size="14.00">SchemaField</text>
</g>
<!-- FieldsGroup&#45;&gt;SchemaField -->
<g id="edge40" class="edge"><title>FieldsGroup&#45;&gt;SchemaField</title>
<path fill="none" stroke="#dacfc0" d="M210.773,-154.493C215.547,-141.35 220.616,-125.094 223,-110 225.496,-94.1959 223.581,-89.9895 223,-74 222.674,-65.0215 222.049,-55.2348 221.389,-46.4389"/>
<polygon fill="#dacfc0" stroke="#dacfc0" points="210.766,-154.512 203.02,-162.275 208.998,-159.189 207.229,-163.866 207.229,-163.866 207.229,-163.866 208.998,-159.189 211.439,-165.458 210.766,-154.512 210.766,-154.512"/>
<polygon fill="#dacfc0" stroke="#dacfc0" points="221.377,-46.2907 225.069,-35.965 220.98,-41.3065 220.583,-36.3222 220.583,-36.3222 220.583,-36.3222 220.98,-41.3065 216.098,-36.6795 221.377,-46.2907 221.377,-46.2907"/>
</g>
<!-- Group -->
<g id="node17" class="node"><title>Group</title>
<ellipse fill="none" stroke="black" cx="622" cy="-272" rx="35.5667" ry="18"/>
<text text-anchor="middle" x="622" y="-266.4" font-family="Times,serif" font-size="14.00">Group</text>
</g>
<!-- Group&#45;&gt;EmployeeGroup -->
<g id="edge38" class="edge"><title>Group&#45;&gt;EmployeeGroup</title>
<path fill="none" stroke="black" d="M614.1,-254.448C606.686,-238.914 595.645,-215.781 588.151,-200.078"/>
</g>
<!-- Group&#45;&gt;FieldsGroup -->
<g id="edge44" class="edge"><title>Group&#45;&gt;FieldsGroup</title>
<path fill="none" stroke="black" d="M589.636,-264.714C514.462,-250.08 329.759,-213.922 268,-200 260.165,-198.234 251.85,-196.248 243.824,-194.274"/>
</g>
<!-- MaterialGroup -->
<g id="node24" class="node"><title>MaterialGroup</title>
<ellipse fill="none" stroke="black" cx="878" cy="-182" rx="68.133" ry="18"/>
<text text-anchor="middle" x="878" y="-176.4" font-family="Times,serif" font-size="14.00">MaterialGroup</text>
</g>
<!-- Group&#45;&gt;MaterialGroup -->
<g id="edge78" class="edge"><title>Group&#45;&gt;MaterialGroup</title>
<path fill="none" stroke="black" d="M650.375,-261.246C696.068,-245.539 786.09,-214.594 838.187,-196.686"/>
</g>
<!-- ProductGroup -->
<g id="node30" class="node"><title>ProductGroup</title>
<ellipse fill="none" stroke="black" cx="1077" cy="-92" rx="65.1317" ry="18"/>
<text text-anchor="middle" x="1077" y="-86.4" font-family="Times,serif" font-size="14.00">ProductGroup</text>
</g>
<!-- Group&#45;&gt;ProductGroup -->
<g id="edge90" class="edge"><title>Group&#45;&gt;ProductGroup</title>
<path fill="none" stroke="black" d="M649.139,-260.251C656.452,-257.777 664.436,-255.448 672,-254 710.79,-246.572 995.381,-259.667 1027,-236 1067.22,-205.898 1075.25,-141.112 1076.74,-110.154"/>
</g>
<!-- Group&#45;&gt;UserGroup -->
<g id="edge140" class="edge"><title>Group&#45;&gt;UserGroup</title>
<path fill="none" stroke="black" d="M592.496,-262.078C539.467,-246.042 428.104,-212.365 369.28,-194.576"/>
</g>
<!-- Warehouse -->
<g id="node45" class="node"><title>Warehouse</title>
<ellipse fill="none" stroke="black" cx="1421" cy="-452" rx="53.5503" ry="18"/>
<text text-anchor="middle" x="1421" y="-446.4" font-family="Times,serif" font-size="14.00">Warehouse</text>
</g>
<!-- Inventory&#45;&gt;Warehouse -->
<g id="edge46" class="edge"><title>Inventory&#45;&gt;Warehouse</title>
<path fill="none" stroke="#5b61a2" d="M979.718,-520.343C1063.14,-512.927 1223.57,-496.504 1358,-470 1362.69,-469.076 1367.54,-467.996 1372.37,-466.835"/>
<polygon fill="#5b61a2" stroke="#5b61a2" points="979.651,-520.349 969.296,-516.741 974.67,-520.786 969.69,-521.224 969.69,-521.224 969.69,-521.224 974.67,-520.786 970.083,-525.707 979.651,-520.349 979.651,-520.349"/>
<polygon fill="#5b61a2" stroke="#5b61a2" points="1372.51,-466.799 1383.31,-468.729 1377.36,-465.582 1382.21,-464.365 1382.21,-464.365 1382.21,-464.365 1377.36,-465.582 1381.12,-460 1372.51,-466.799 1372.51,-466.799"/>
</g>
<!-- LocatedMaterial -->
<g id="node19" class="node"><title>LocatedMaterial</title>
<ellipse fill="none" stroke="black" cx="1311" cy="-182" rx="74.2672" ry="18"/>
<text text-anchor="middle" x="1311" y="-176.4" font-family="Times,serif" font-size="14.00">LocatedMaterial</text>
</g>
<!-- LocatedProduct -->
<g id="node20" class="node"><title>LocatedProduct</title>
<ellipse fill="none" stroke="black" cx="1826" cy="-92" rx="72.2629" ry="18"/>
<text text-anchor="middle" x="1826" y="-86.4" font-family="Times,serif" font-size="14.00">LocatedProduct</text>
</g>
<!-- Location -->
<g id="node21" class="node"><title>Location</title>
<ellipse fill="none" stroke="black" cx="1421" cy="-362" rx="45.0398" ry="18"/>
<text text-anchor="middle" x="1421" y="-356.4" font-family="Times,serif" font-size="14.00">Location</text>
</g>
<!-- Location&#45;&gt;LocatedMaterial -->
<g id="edge48" class="edge"><title>Location&#45;&gt;LocatedMaterial</title>
<path fill="none" stroke="#b4edda" d="M1380.23,-346.325C1355.47,-335.049 1325.9,-316.806 1311.27,-290 1297.9,-265.506 1300.13,-232.917 1304.25,-210.166"/>
<ellipse fill="none" stroke="#b4edda" cx="1384.07" cy="-348.002" rx="4.00002" ry="4.00002"/>
<polygon fill="#b4edda" stroke="#b4edda" points="1304.29,-209.965 1310.71,-201.071 1305.3,-205.067 1306.3,-200.168 1306.3,-200.168 1306.3,-200.168 1305.3,-205.067 1301.89,-199.266 1304.29,-209.965 1304.29,-209.965"/>
<text text-anchor="middle" x="1357.87" y="-266.4" font-family="Times,serif" font-size="14.00">locatedmaterials</text>
</g>
<!-- Location&#45;&gt;LocatedProduct -->
<g id="edge56" class="edge"><title>Location&#45;&gt;LocatedProduct</title>
<path fill="none" stroke="#b966be" d="M1462.85,-347.397C1500.79,-334.476 1557.81,-313.563 1605,-290 1659.07,-263 1664.53,-241.14 1720.37,-218 1753.09,-204.439 1772.6,-224.691 1798,-200 1809.29,-189.021 1817.61,-148.177 1822.13,-120.25"/>
<ellipse fill="none" stroke="#b966be" cx="1458.85" cy="-348.751" rx="4.00001" ry="4.00001"/>
<polygon fill="#b966be" stroke="#b966be" points="1822.14,-120.151 1828.12,-110.957 1822.91,-115.21 1823.67,-110.269 1823.67,-110.269 1823.67,-110.269 1822.91,-115.21 1819.22,-109.581 1822.14,-120.151 1822.14,-120.151"/>
<text text-anchor="middle" x="1764.32" y="-221.4" font-family="Times,serif" font-size="14.00">locatedproducts</text>
</g>
<!-- Location&#45;&gt;Location -->
<g id="edge50" class="edge"><title>Location&#45;&gt;Location</title>
<path fill="none" stroke="#278770" d="M1469.42,-369.756C1478.01,-368.74 1484,-366.154 1484,-362 1484,-358.223 1479.05,-355.743 1471.7,-354.56"/>
<ellipse fill="none" stroke="#278770" cx="1465.29" cy="-370.005" rx="4" ry="4"/>
<polygon fill="#278770" stroke="#278770" points="1471.26,-354.527 1461.64,-349.268 1466.28,-354.141 1461.29,-353.755 1461.29,-353.755 1461.29,-353.755 1466.28,-354.141 1460.95,-358.241 1471.26,-354.527 1471.26,-354.527"/>
<text text-anchor="middle" x="1523.27" y="-356.4" font-family="Times,serif" font-size="14.00">childlocations</text>
</g>
<!-- Location&#45;&gt;Material -->
<g id="edge52" class="edge"><title>Location&#45;&gt;Material</title>
<path fill="none" stroke="#5da837" d="M1431.51,-334.586C1435.92,-323.493 1441.04,-310.615 1445.46,-299.511"/>
<polygon fill="#5da837" stroke="#5da837" points="1431.44,-334.741 1423.57,-342.37 1429.6,-339.387 1427.75,-344.033 1427.75,-344.033 1427.75,-344.033 1429.6,-339.387 1431.93,-345.696 1431.44,-334.741 1431.44,-334.741"/>
<polygon fill="#5da837" stroke="#5da837" points="1445.58,-299.207 1453.45,-291.578 1447.42,-294.561 1449.27,-289.915 1449.27,-289.915 1449.27,-289.915 1447.42,-294.561 1445.09,-288.252 1445.58,-299.207 1445.58,-299.207"/>
</g>
<!-- Location&#45;&gt;Product -->
<g id="edge54" class="edge"><title>Location&#45;&gt;Product</title>
<path fill="none" stroke="#2ed39e" d="M1475.73,-357.762C1520.66,-353.802 1585.4,-345.082 1639,-326 1724.34,-295.621 1813.75,-235.707 1857.9,-203.932"/>
<polygon fill="#2ed39e" stroke="#2ed39e" points="1475.57,-357.775 1465.23,-354.119 1470.58,-358.189 1465.6,-358.603 1465.6,-358.603 1465.6,-358.603 1470.58,-358.189 1465.97,-363.088 1475.57,-357.775 1475.57,-357.775"/>
<polygon fill="#2ed39e" stroke="#2ed39e" points="1858.02,-203.844 1868.76,-201.61 1862.07,-200.907 1866.12,-197.969 1866.12,-197.969 1866.12,-197.969 1862.07,-200.907 1863.47,-194.328 1858.02,-203.844 1858.02,-203.844"/>
</g>
<!-- WorkOrder -->
<g id="node46" class="node"><title>WorkOrder</title>
<ellipse fill="none" stroke="black" cx="2145" cy="-362" rx="54.166" ry="18"/>
<text text-anchor="middle" x="2145" y="-356.4" font-family="Times,serif" font-size="14.00">WorkOrder</text>
</g>
<!-- ManufactureOrder&#45;&gt;WorkOrder -->
<g id="edge58" class="edge"><title>ManufactureOrder&#45;&gt;WorkOrder</title>
<path fill="none" stroke="#ba4ed1" d="M2145,-425.462C2145,-414.397 2145,-401.428 2145,-390.184"/>
<ellipse fill="none" stroke="#ba4ed1" cx="2145" cy="-429.614" rx="4" ry="4"/>
<polygon fill="#ba4ed1" stroke="#ba4ed1" points="2145,-390.05 2149.5,-380.05 2145,-385.05 2145,-380.05 2145,-380.05 2145,-380.05 2145,-385.05 2140.5,-380.05 2145,-390.05 2145,-390.05"/>
</g>
<!-- Material&#45;&gt;DocumentedMaterial -->
<g id="edge72" class="edge"><title>Material&#45;&gt;DocumentedMaterial</title>
<path fill="none" stroke="#bf5b74" d="M1494.97,-256.712C1535.81,-241.737 1600.15,-218.144 1645.01,-201.697"/>
<ellipse fill="none" stroke="#bf5b74" cx="1491.13" cy="-258.118" rx="4.00001" ry="4.00001"/>
<polygon fill="#bf5b74" stroke="#bf5b74" points="1645.16,-201.641 1656.1,-202.423 1649.86,-199.919 1654.55,-198.198 1654.55,-198.198 1654.55,-198.198 1649.86,-199.919 1653,-193.973 1645.16,-201.641 1645.16,-201.641"/>
</g>
<!-- Material&#45;&gt;LocatedMaterial -->
<g id="edge62" class="edge"><title>Material&#45;&gt;LocatedMaterial</title>
<path fill="none" stroke="#9c27b4" d="M1425.33,-252.384C1402.17,-238.33 1370.36,-219.026 1346.17,-204.346"/>
<ellipse fill="none" stroke="#9c27b4" cx="1428.96" cy="-254.59" rx="4.00002" ry="4.00002"/>
<polygon fill="#9c27b4" stroke="#9c27b4" points="1345.86,-204.156 1339.65,-195.121 1341.58,-201.562 1337.31,-198.968 1337.31,-198.968 1337.31,-198.968 1341.58,-201.562 1334.98,-202.815 1345.86,-204.156 1345.86,-204.156"/>
</g>
<!-- Material&#45;&gt;Material -->
<g id="edge64" class="edge"><title>Material&#45;&gt;Material</title>
<path fill="none" stroke="#f4c881" d="M1502.94,-279.749C1511.23,-278.728 1517,-276.145 1517,-272 1517,-268.193 1512.13,-265.704 1504.92,-264.532"/>
<ellipse fill="none" stroke="#f4c881" cx="1498.71" cy="-280.006" rx="4" ry="4"/>
<polygon fill="#f4c881" stroke="#f4c881" points="1504.69,-264.515 1495.06,-259.265 1499.7,-264.133 1494.72,-263.752 1494.72,-263.752 1494.72,-263.752 1499.7,-264.133 1494.38,-268.239 1504.69,-264.515 1504.69,-264.515"/>
<text text-anchor="middle" x="1556.65" y="-266.4" font-family="Times,serif" font-size="14.00">childmaterials</text>
</g>
<!-- Material&#45;&gt;MaterialGroup -->
<g id="edge74" class="edge"><title>Material&#45;&gt;MaterialGroup</title>
<path fill="none" stroke="#3d9cde" d="M1413.14,-257.7C1408.07,-256.344 1402.94,-255.073 1398,-254 1370.58,-248.038 1175.81,-221.804 1148,-218 1080.25,-208.731 1002.84,-198.76 948.331,-191.841"/>
<polygon fill="#3d9cde" stroke="#3d9cde" points="1413.14,-257.7 1421.57,-264.718 1417.96,-259.041 1422.78,-260.383 1422.78,-260.383 1422.78,-260.383 1417.96,-259.041 1423.99,-256.048 1413.14,-257.7 1413.14,-257.7"/>
<polygon fill="#3d9cde" stroke="#3d9cde" points="948.006,-191.8 938.651,-186.078 943.046,-191.171 938.085,-190.542 938.085,-190.542 938.085,-190.542 943.046,-191.171 937.519,-195.007 948.006,-191.8 948.006,-191.8"/>
</g>
<!-- Material&#45;&gt;Product -->
<g id="edge66" class="edge"><title>Material&#45;&gt;Product</title>
<path fill="none" stroke="#1dbd51" d="M1508.74,-267.137C1561.87,-262.497 1645.95,-253.108 1717,-236 1740.37,-230.373 1745.14,-225.42 1768,-218 1792.59,-210.02 1820.29,-201.767 1842.67,-195.28"/>
<polygon fill="#1dbd51" stroke="#1dbd51" points="1508.5,-267.157 1498.15,-263.518 1503.52,-267.579 1498.53,-268.002 1498.53,-268.002 1498.53,-268.002 1503.52,-267.579 1498.91,-272.486 1508.5,-267.157 1508.5,-267.157"/>
<polygon fill="#1dbd51" stroke="#1dbd51" points="1842.94,-195.202 1853.79,-196.755 1847.74,-193.817 1852.55,-192.431 1852.55,-192.431 1852.55,-192.431 1847.74,-193.817 1851.3,-188.107 1842.94,-195.202 1842.94,-195.202"/>
</g>
<!-- ProductMaterialDetail -->
<g id="node31" class="node"><title>ProductMaterialDetail</title>
<ellipse fill="none" stroke="black" cx="1556" cy="-92" rx="97.0751" ry="18"/>
<text text-anchor="middle" x="1556" y="-86.4" font-family="Times,serif" font-size="14.00">ProductMaterialDetail</text>
</g>
<!-- Material&#45;&gt;ProductMaterialDetail -->
<g id="edge76" class="edge"><title>Material&#45;&gt;ProductMaterialDetail</title>
<path fill="none" stroke="#a6e750" d="M1453.87,-245.725C1453.1,-222.96 1454.9,-189.287 1468.83,-164 1479.99,-143.722 1499.52,-126.995 1517.27,-114.881"/>
<ellipse fill="none" stroke="#a6e750" cx="1454.08" cy="-249.881" rx="4" ry="4"/>
<polygon fill="#a6e750" stroke="#a6e750" points="1517.42,-114.78 1528.25,-113.075 1521.61,-112.044 1525.79,-109.309 1525.79,-109.309 1525.79,-109.309 1521.61,-112.044 1523.33,-105.542 1517.42,-114.78 1517.42,-114.78"/>
<text text-anchor="middle" x="1530.59" y="-176.4" font-family="Times,serif" font-size="14.00">productmaterialdetails</text>
</g>
<!-- Vendor -->
<g id="node43" class="node"><title>Vendor</title>
<ellipse fill="none" stroke="black" cx="1179" cy="-182" rx="38.3923" ry="18"/>
<text text-anchor="middle" x="1179" y="-176.4" font-family="Times,serif" font-size="14.00">Vendor</text>
</g>
<!-- Material&#45;&gt;Vendor -->
<g id="edge68" class="edge"><title>Material&#45;&gt;Vendor</title>
<path fill="none" stroke="#dd5c54" d="M1412.02,-257.932C1365.8,-244.063 1291.04,-221.258 1227,-200 1224.11,-199.042 1221.14,-198.035 1218.15,-197.009"/>
<polygon fill="#dd5c54" stroke="#dd5c54" points="1412.14,-257.968 1420.43,-265.147 1416.93,-259.402 1421.72,-260.836 1421.72,-260.836 1421.72,-260.836 1416.93,-259.402 1423.01,-256.525 1412.14,-257.968 1412.14,-257.968"/>
<polygon fill="#dd5c54" stroke="#dd5c54" points="1218.08,-196.987 1210.12,-189.454 1213.36,-195.346 1208.64,-193.704 1208.64,-193.704 1208.64,-193.704 1213.36,-195.346 1207.16,-197.955 1218.08,-196.987 1218.08,-196.987"/>
</g>
<!-- VendorMaterial -->
<g id="node44" class="node"><title>VendorMaterial</title>
<ellipse fill="none" stroke="black" cx="1300" cy="-92" rx="71.4561" ry="18"/>
<text text-anchor="middle" x="1300" y="-86.4" font-family="Times,serif" font-size="14.00">VendorMaterial</text>
</g>
<!-- Material&#45;&gt;VendorMaterial -->
<g id="edge70" class="edge"><title>Material&#45;&gt;VendorMaterial</title>
<path fill="none" stroke="#479586" d="M1445.42,-246.794C1434.65,-223.866 1416.37,-189.277 1394,-164 1376.96,-144.743 1353.98,-127.274 1335.01,-114.483"/>
<ellipse fill="none" stroke="#479586" cx="1447.11" cy="-250.459" rx="4.00002" ry="4.00002"/>
<polygon fill="#479586" stroke="#479586" points="1334.95,-114.45 1329.08,-105.188 1330.78,-111.697 1326.61,-108.945 1326.61,-108.945 1326.61,-108.945 1330.78,-111.697 1324.13,-112.702 1334.95,-114.45 1334.95,-114.45"/>
</g>
<!-- Postick -->
<g id="node27" class="node"><title>Postick</title>
<ellipse fill="none" stroke="black" cx="1876" cy="-641" rx="39.2119" ry="18"/>
<text text-anchor="middle" x="1876" y="-635.4" font-family="Times,serif" font-size="14.00">Postick</text>
</g>
<!-- PricingRule -->
<g id="node28" class="node"><title>PricingRule</title>
<ellipse fill="none" stroke="black" cx="1991" cy="-641" rx="57.2568" ry="18"/>
<text text-anchor="middle" x="1991" y="-635.4" font-family="Times,serif" font-size="14.00">PricingRule</text>
</g>
<!-- Product&#45;&gt;DocumentedProduct -->
<g id="edge82" class="edge"><title>Product&#45;&gt;DocumentedProduct</title>
<path fill="none" stroke="#8ddb57" d="M1930.7,-171.902C1949.15,-166.565 1969.92,-158.36 1986,-146 1995.36,-138.807 2003.14,-128.474 2009.05,-118.838"/>
<ellipse fill="none" stroke="#8ddb57" cx="1926.82" cy="-172.963" rx="4.00001" ry="4.00001"/>
<polygon fill="#8ddb57" stroke="#8ddb57" points="2009.17,-118.623 2018.04,-112.169 2011.65,-114.28 2014.13,-109.938 2014.13,-109.938 2014.13,-109.938 2011.65,-114.28 2010.22,-107.707 2009.17,-118.623 2009.17,-118.623"/>
</g>
<!-- Product&#45;&gt;LocatedProduct -->
<g id="edge84" class="edge"><title>Product&#45;&gt;LocatedProduct</title>
<path fill="none" stroke="#8f28f5" d="M1929.26,-170.562C1957.04,-161.753 1985.29,-147.455 1970,-128 1964.82,-121.413 1927.63,-112.469 1892.35,-105.27"/>
<ellipse fill="none" stroke="#8f28f5" cx="1925.31" cy="-171.75" rx="4.00001" ry="4.00001"/>
<polygon fill="#8f28f5" stroke="#8f28f5" points="1892.28,-105.257 1883.36,-98.8777 1887.38,-104.273 1882.48,-103.29 1882.48,-103.29 1882.48,-103.29 1887.38,-104.273 1881.59,-107.702 1892.28,-105.257 1892.28,-105.257"/>
</g>
<!-- Product&#45;&gt;ProductGroup -->
<g id="edge86" class="edge"><title>Product&#45;&gt;ProductGroup</title>
<path fill="none" stroke="#1acb1a" d="M1839.77,-171.188C1826.34,-168.578 1811.63,-165.947 1798,-164 1542.15,-127.446 1476,-137.363 1219,-110 1195.02,-107.447 1168.8,-104.384 1145.48,-101.566"/>
<polygon fill="#1acb1a" stroke="#1acb1a" points="1839.93,-171.221 1848.87,-177.582 1844.84,-172.194 1849.74,-173.168 1849.74,-173.168 1849.74,-173.168 1844.84,-172.194 1850.62,-168.754 1839.93,-171.221 1839.93,-171.221"/>
<polygon fill="#1acb1a" stroke="#1acb1a" points="1145.27,-101.54 1135.88,-95.8658 1140.3,-100.936 1135.34,-100.333 1135.34,-100.333 1135.34,-100.333 1140.3,-100.936 1134.8,-104.8 1145.27,-101.54 1145.27,-101.54"/>
</g>
<!-- Product&#45;&gt;ProductMaterialDetail -->
<g id="edge88" class="edge"><title>Product&#45;&gt;ProductMaterialDetail</title>
<path fill="none" stroke="#b12cdd" d="M1844.19,-169.85C1787.34,-154.69 1685.17,-127.446 1619.01,-109.802"/>
<ellipse fill="none" stroke="#b12cdd" cx="1848.06" cy="-170.883" rx="4.00001" ry="4.00001"/>
<polygon fill="#b12cdd" stroke="#b12cdd" points="1618.78,-109.74 1610.27,-102.815 1613.94,-108.452 1609.11,-107.164 1609.11,-107.164 1609.11,-107.164 1613.94,-108.452 1607.95,-111.512 1618.78,-109.74 1618.78,-109.74"/>
<text text-anchor="middle" x="1812.59" y="-131.4" font-family="Times,serif" font-size="14.00">productmaterialdetails</text>
</g>
<!-- PurchaseOrder&#45;&gt;Carrier -->
<g id="edge94" class="edge"><title>PurchaseOrder&#45;&gt;Carrier</title>
<path fill="none" stroke="#7fc07a" d="M1101.44,-344.277C1054.6,-327.453 983.303,-301.844 940.133,-286.338"/>
<ellipse fill="none" stroke="#7fc07a" cx="1105.41" cy="-345.704" rx="4.00001" ry="4.00001"/>
<ellipse fill="#7fc07a" stroke="#7fc07a" cx="936.176" cy="-284.916" rx="4.00001" ry="4.00001"/>
</g>
<!-- PurchaseOrder&#45;&gt;Vendor -->
<g id="edge92" class="edge"><title>PurchaseOrder&#45;&gt;Vendor</title>
<path fill="none" stroke="#162332" d="M1183.81,-341.107C1201.86,-328.939 1221.99,-311.56 1232,-290 1245.9,-260.05 1221.99,-225.948 1201.93,-204.455"/>
<ellipse fill="none" stroke="#162332" cx="1180.12" cy="-343.499" rx="4.00002" ry="4.00002"/>
<ellipse fill="#162332" stroke="#162332" cx="1198.93" cy="-201.349" rx="4.00002" ry="4.00002"/>
</g>
<!-- ReceivingOrder&#45;&gt;Carrier -->
<g id="edge102" class="edge"><title>ReceivingOrder&#45;&gt;Carrier</title>
<path fill="none" stroke="#2c430b" d="M979.868,-431.942C959.012,-419.952 935.017,-402.475 921,-380 912.724,-366.731 907.612,-325.666 905.041,-298.441"/>
<ellipse fill="none" stroke="#2c430b" cx="983.596" cy="-434.012" rx="4.00002" ry="4.00002"/>
<ellipse fill="#2c430b" stroke="#2c430b" cx="904.653" cy="-294.125" rx="4" ry="4"/>
</g>
<!-- ReceivingOrder&#45;&gt;Employee -->
<g id="edge100" class="edge"><title>ReceivingOrder&#45;&gt;Employee</title>
<path fill="none" stroke="#c44175" d="M957.819,-438.269C950.142,-436.785 942.397,-435.328 935,-434 884.906,-425.008 871.951,-425.282 821.91,-416 751.892,-403.012 671.396,-385.467 621.109,-374.191"/>
<ellipse fill="none" stroke="#c44175" cx="962.176" cy="-439.12" rx="4.00001" ry="4.00001"/>
<ellipse fill="#c44175" stroke="#c44175" cx="616.901" cy="-373.245" rx="4.00001" ry="4.00001"/>
<text text-anchor="middle" x="855.045" y="-401.4" font-family="Times,serif" font-size="14.00">responsable</text>
</g>
<!-- ReceivingOrder&#45;&gt;Location -->
<g id="edge98" class="edge"><title>ReceivingOrder&#45;&gt;Location</title>
<path fill="none" stroke="#21d032" d="M1080.3,-437.767C1160.72,-420.119 1301.4,-389.247 1374.27,-373.255"/>
<ellipse fill="none" stroke="#21d032" cx="1076.33" cy="-438.638" rx="4.00001" ry="4.00001"/>
<ellipse fill="#21d032" stroke="#21d032" cx="1378.48" cy="-372.331" rx="4.00001" ry="4.00001"/>
</g>
<!-- RmaOrder&#45;&gt;Customer -->
<g id="edge106" class="edge"><title>RmaOrder&#45;&gt;Customer</title>
<path fill="none" stroke="#618efe" d="M870.114,-426.149C867.638,-416.905 864.053,-406.584 859,-398 856.228,-393.291 852.695,-388.733 848.959,-384.549"/>
<ellipse fill="none" stroke="#618efe" cx="871.064" cy="-430.038" rx="4.00001" ry="4.00001"/>
<ellipse fill="#618efe" stroke="#618efe" cx="846.164" cy="-381.611" rx="4.00002" ry="4.00002"/>
</g>
<!-- SalesOrder&#45;&gt;Address -->
<g id="edge110" class="edge"><title>SalesOrder&#45;&gt;Address</title>
<path fill="none" stroke="#f34960" d="M653.089,-446.407C607.303,-439.514 546.53,-422.391 513,-380 453.261,-304.473 434.465,-238.072 496,-164 536.166,-115.65 724.578,-99.8801 815.995,-95.0225"/>
<ellipse fill="none" stroke="#f34960" cx="657.203" cy="-446.985" rx="4.00001" ry="4.00001"/>
<ellipse fill="#f34960" stroke="#f34960" cx="820.006" cy="-94.8168" rx="4" ry="4"/>
<text text-anchor="middle" x="501.397" y="-266.4" font-family="Times,serif" font-size="14.00">shipToAdress</text>
</g>
<!-- SalesOrder&#45;&gt;Address -->
<g id="edge118" class="edge"><title>SalesOrder&#45;&gt;Address</title>
<path fill="none" stroke="#77d0c7" d="M704.651,-426.03C699.55,-408.58 694,-384.625 694,-363 694,-363 694,-363 694,-181 694,-125.441 766.007,-104.937 816.839,-97.3854"/>
<ellipse fill="none" stroke="#77d0c7" cx="705.925" cy="-430.209" rx="4.00001" ry="4.00001"/>
<ellipse fill="#77d0c7" stroke="#77d0c7" cx="820.84" cy="-96.8307" rx="4.00001" ry="4.00001"/>
<text text-anchor="middle" x="730.063" y="-266.4" font-family="Times,serif" font-size="14.00">billToAdress</text>
</g>
<!-- SalesOrder&#45;&gt;Carrier -->
<g id="edge114" class="edge"><title>SalesOrder&#45;&gt;Carrier</title>
<path fill="none" stroke="#5b2ed2" d="M721.537,-426.312C730.366,-403.252 745.84,-368.764 767,-344 792.254,-314.444 832.92,-295.511 863.215,-284.695"/>
<ellipse fill="none" stroke="#5b2ed2" cx="720.088" cy="-430.208" rx="4.00001" ry="4.00001"/>
<ellipse fill="#5b2ed2" stroke="#5b2ed2" cx="867.288" cy="-283.291" rx="4.00001" ry="4.00001"/>
</g>
<!-- SalesOrder&#45;&gt;Customer -->
<g id="edge112" class="edge"><title>SalesOrder&#45;&gt;Customer</title>
<path fill="none" stroke="#fac1b5" d="M773.89,-447.799C795.769,-443.339 818.384,-434.197 832,-416 837.995,-407.988 837.699,-397.324 835.347,-387.663"/>
<ellipse fill="none" stroke="#fac1b5" cx="769.817" cy="-448.531" rx="4.00001" ry="4.00001"/>
<ellipse fill="#fac1b5" stroke="#fac1b5" cx="834.143" cy="-383.692" rx="4.00001" ry="4.00001"/>
</g>
<!-- SalesOrder&#45;&gt;Employee -->
<g id="edge116" class="edge"><title>SalesOrder&#45;&gt;Employee</title>
<path fill="none" stroke="#8beffa" d="M662.099,-438.773C646.011,-433.416 628.769,-426.007 614.676,-416 603.719,-408.22 594.074,-396.89 586.737,-386.701"/>
<ellipse fill="none" stroke="#8beffa" cx="666.072" cy="-440.032" rx="4.00001" ry="4.00001"/>
<ellipse fill="#8beffa" stroke="#8beffa" cx="584.31" cy="-383.18" rx="4.00002" ry="4.00002"/>
<text text-anchor="middle" x="647.662" y="-401.4" font-family="Times,serif" font-size="14.00">salesPerson</text>
</g>
<!-- Schema&#45;&gt;SchemaField -->
<g id="edge122" class="edge"><title>Schema&#45;&gt;SchemaField</title>
<path fill="none" stroke="#8acf3b" d="M189.15,-65.7223C193.455,-58.9841 198.112,-51.6944 202.439,-44.9223"/>
<polygon fill="#8acf3b" stroke="#8acf3b" points="189.053,-65.8738 179.877,-71.878 186.361,-70.0873 183.669,-74.3008 183.669,-74.3008 183.669,-74.3008 186.361,-70.0873 187.461,-76.7236 189.053,-65.8738 189.053,-65.8738"/>
<polygon fill="#8acf3b" stroke="#8acf3b" points="202.686,-44.5356 211.862,-38.5314 205.378,-40.3221 208.069,-36.1086 208.069,-36.1086 208.069,-36.1086 205.378,-40.3221 204.277,-33.6859 202.686,-44.5356 202.686,-44.5356"/>
</g>
<!-- ShippingOrder&#45;&gt;Address -->
<g id="edge126" class="edge"><title>ShippingOrder&#45;&gt;Address</title>
<path fill="none" stroke="#7bb7e4" d="M1277.72,-425.891C1273.92,-403.238 1266.13,-369.637 1251,-344 1214.79,-282.626 1078.35,-158.607 1014,-128 982.507,-113.021 944.114,-104.182 914.324,-99.1341"/>
<ellipse fill="none" stroke="#7bb7e4" cx="1278.37" cy="-430.046" rx="4.00001" ry="4.00001"/>
<ellipse fill="#7bb7e4" stroke="#7bb7e4" cx="910.111" cy="-98.4501" rx="4.00001" ry="4.00001"/>
<text text-anchor="middle" x="1229.99" y="-266.4" font-family="Times,serif" font-size="14.00">address</text>
</g>
<!-- ShippingOrder&#45;&gt;Carrier -->
<g id="edge128" class="edge"><title>ShippingOrder&#45;&gt;Carrier</title>
<path fill="none" stroke="#db2358" d="M1271.08,-426.56C1259.21,-398.466 1239.16,-354.827 1225,-344 1181.89,-311.037 1026.03,-287.956 948.06,-278.2"/>
<ellipse fill="none" stroke="#db2358" cx="1272.66" cy="-430.34" rx="4.00002" ry="4.00002"/>
<ellipse fill="#db2358" stroke="#db2358" cx="943.827" cy="-277.677" rx="4.00001" ry="4.00001"/>
</g>
<!-- ShippingOrder&#45;&gt;Location -->
<g id="edge124" class="edge"><title>ShippingOrder&#45;&gt;Location</title>
<path fill="none" stroke="#73f83c" d="M1313.35,-430.665C1336.72,-415.975 1368.06,-396.274 1390.9,-381.92"/>
<ellipse fill="none" stroke="#73f83c" cx="1309.74" cy="-432.935" rx="4.00002" ry="4.00002"/>
<ellipse fill="#73f83c" stroke="#73f83c" cx="1394.31" cy="-379.777" rx="4.00002" ry="4.00002"/>
</g>
<!-- TransferOrder&#45;&gt;Address -->
<g id="edge132" class="edge"><title>TransferOrder&#45;&gt;Address</title>
<path fill="none" stroke="#eb8652" d="M1015.19,-337.368C1035.62,-309.256 1063.3,-260.749 1050,-218 1035.57,-171.62 1027.43,-156.36 988,-128 966.463,-112.511 938.201,-103.85 914.303,-99.02"/>
<ellipse fill="none" stroke="#eb8652" cx="1012.58" cy="-340.857" rx="4.00002" ry="4.00002"/>
<ellipse fill="#eb8652" stroke="#eb8652" cx="910.312" cy="-98.2666" rx="4.00001" ry="4.00001"/>
<text text-anchor="middle" x="1090.55" y="-221.4" font-family="Times,serif" font-size="14.00">fromAddress</text>
</g>
<!-- TransferOrder&#45;&gt;Address -->
<g id="edge136" class="edge"><title>TransferOrder&#45;&gt;Address</title>
<path fill="none" stroke="#db2378" d="M996.071,-335.46C995.06,-295.851 988.514,-218.502 955,-164 941.261,-141.656 917.85,-123.399 898.487,-110.995"/>
<ellipse fill="none" stroke="#db2378" cx="996.146" cy="-339.774" rx="4" ry="4"/>
<ellipse fill="#db2378" stroke="#db2378" cx="894.96" cy="-108.804" rx="4.00002" ry="4.00002"/>
<text text-anchor="middle" x="1012.39" y="-221.4" font-family="Times,serif" font-size="14.00">toAddress</text>
</g>
<!-- TransferOrder&#45;&gt;Carrier -->
<g id="edge134" class="edge"><title>TransferOrder&#45;&gt;Carrier</title>
<path fill="none" stroke="#918e4a" d="M971.675,-338.746C967.114,-334.531 962.398,-330.144 958,-326 946.97,-315.608 934.827,-303.933 924.763,-294.19"/>
<ellipse fill="none" stroke="#918e4a" cx="974.812" cy="-341.637" rx="4.00002" ry="4.00002"/>
<ellipse fill="#918e4a" stroke="#918e4a" cx="921.666" cy="-291.187" rx="4.00002" ry="4.00002"/>
</g>
<!-- User -->
<g id="node41" class="node"><title>User</title>
<ellipse fill="none" stroke="black" cx="243" cy="-362" rx="28.9087" ry="18"/>
<text text-anchor="middle" x="243" y="-356.4" font-family="Times,serif" font-size="14.00">User</text>
</g>
<!-- User&#45;&gt;ApplicationUser -->
<g id="edge10" class="edge"><title>User&#45;&gt;ApplicationUser</title>
<path fill="none" stroke="black" d="M243,-343.614C243,-328.086 243,-305.475 243,-290.05"/>
</g>
<!-- Vendor&#45;&gt;Address -->
<g id="edge142" class="edge"><title>Vendor&#45;&gt;Address</title>
<path fill="none" stroke="#df8aae" d="M1162.34,-158.439C1152.94,-147.419 1140.23,-135.045 1126,-128 1121.33,-125.687 990.282,-108.772 916.063,-99.3301"/>
<ellipse fill="none" stroke="#df8aae" cx="1164.95" cy="-161.625" rx="4.00002" ry="4.00002"/>
<polygon fill="#df8aae" stroke="#df8aae" points="915.907,-99.3103 906.554,-93.5856 910.947,-98.68 905.987,-98.0497 905.987,-98.0497 905.987,-98.0497 910.947,-98.68 905.419,-102.514 915.907,-99.3103 915.907,-99.3103"/>
</g>
<!-- Vendor&#45;&gt;VendorMaterial -->
<g id="edge144" class="edge"><title>Vendor&#45;&gt;VendorMaterial</title>
<path fill="none" stroke="#13c48c" d="M1205.66,-161.614C1224.42,-147.967 1249.59,-129.662 1269.21,-115.391"/>
<ellipse fill="none" stroke="#13c48c" cx="1202.22" cy="-164.116" rx="4.00002" ry="4.00002"/>
<polygon fill="#13c48c" stroke="#13c48c" points="1269.43,-115.231 1280.17,-112.988 1273.48,-112.29 1277.52,-109.349 1277.52,-109.349 1277.52,-109.349 1273.48,-112.29 1274.87,-105.71 1269.43,-115.231 1269.43,-115.231"/>
</g>
<!-- Warehouse&#45;&gt;Location -->
<g id="edge146" class="edge"><title>Warehouse&#45;&gt;Location</title>
<path fill="none" stroke="#0e65e0" d="M1421,-425.462C1421,-414.397 1421,-401.428 1421,-390.184"/>
<ellipse fill="none" stroke="#0e65e0" cx="1421" cy="-429.614" rx="4" ry="4"/>
<polygon fill="#0e65e0" stroke="#0e65e0" points="1421,-390.05 1425.5,-380.05 1421,-385.05 1421,-380.05 1421,-380.05 1421,-380.05 1421,-385.05 1416.5,-380.05 1421,-390.05 1421,-390.05"/>
</g>
</g>
</svg>
